# xmcd CD database file
#
# Track frame offsets:
#	180
#	12965
#	35845
#	73947
#	91947
#	119297
#	151575
#	170322
#	196725
#	217267
#	232345
#	260562
#
# Disc length: 4015 seconds
#
# Revision: 0
# Processed by: cddbd v1.4PL0 Copyright (c) Steve Scherf et al.
# Submitted via: CDex 1.50Beta5
#
DISCID=a80fad0c
DTITLE=Various Artist - Edition Collage - Piano Moments
DYEAR=1995
DGENRE=Jazz
TTITLE0=Music For Two Pianos, Part III (Cornelius Claudio Kreusch and Hans Poppel
TTITLE1=Fire (Chris Jarrett)
TTITLE2=Taiga (Cornelius Claudio Kreusch)
TTITLE3=Nahend (Rade Soric Trio)
TTITLE4=Lucyna (Rade Soric Trio)
TTITLE5=Stella Backstage (Cornelius Claudio Kreusch)
TTITLE6=Music For Two Pianos, Part IV (Cornelius Claudio Kreusch and Hans Poppel)
TTITLE7=Down South (Chris Jarrett)
TTITLE8=Paprika Lady (Chris Jarrett)
TTITLE9=One Way In Harlem (Cornelius Claudio Kreusch)
TTITLE10=Ahaha (Rade Soric Trio)
TTITLE11=Blue Nights/White Nights (Chris Jarrett)
EXTD=YEAR: 1995
EXTT0=
EXTT1=
EXTT2=
EXTT3=
EXTT4=
EXTT5=
EXTT6=
EXTT7=
EXTT8=
EXTT9=
EXTT10=
EXTT11=
PLAYORDER=
